<?xml version="1.0" standalone="no"?>
<!DOCTYPE svg PUBLIC "-//W3C//DTD SVG 20010904//EN"
 "http://www.w3.org/TR/2001/REC-SVG-20010904/DTD/svg10.dtd">
<svg version="1.0" xmlns="http://www.w3.org/2000/svg"
 width="300.000000pt" height="324.000000pt" viewBox="0 0 300.000000 324.000000"
 preserveAspectRatio="xMidYMid meet">
<metadata>
Created by potrace 1.10, written by Peter Selinger 2001-2011
</metadata>
<g transform="translate(0.000000,324.000000) scale(0.100000,-0.100000)"
fill="#000000" stroke="none">
<path d="M2334 2654 c-70 -25 -103 -61 -116 -127 -9 -49 -9 -64 5 -91 8 -18
24 -35 34 -38 34 -9 132 17 159 43 59 55 93 178 59 212 -20 21 -84 21 -141 1z
m90 -30 c23 -9 20 -72 -4 -111 -25 -41 -59 -63 -108 -70 -51 -7 -66 12 -57 69
9 51 48 92 102 106 50 13 49 13 67 6z"/>
<path d="M2173 2304 c-52 -19 -123 -93 -123 -129 0 -14 -8 -42 -19 -63 -10
-20 -40 -91 -65 -157 -51 -131 -82 -191 -159 -305 -140 -209 -323 -406 -457
-493 -81 -52 -162 -97 -175 -97 -4 0 26 62 65 138 40 75 85 170 101 210 16 40
55 114 86 165 31 51 95 155 141 232 122 202 155 248 201 278 39 26 41 29 41
81 0 78 -30 120 -90 124 -24 2 -54 1 -66 -2 -13 -4 -73 -54 -133 -112 -151
-144 -246 -222 -376 -309 -122 -80 -201 -122 -212 -112 -7 8 93 160 141 215
16 19 55 51 85 72 78 52 93 72 98 127 7 64 -16 85 -95 91 -50 3 -63 0 -105
-27 -31 -20 -60 -52 -85 -91 -20 -33 -74 -107 -118 -164 -96 -123 -133 -193
-141 -268 -10 -97 38 -158 124 -158 49 0 88 23 258 152 189 142 297 219 302
214 2 -2 -19 -44 -47 -92 -95 -164 -168 -328 -229 -509 -33 -99 -65 -208 -72
-242 -14 -70 -10 -67 -119 -83 -94 -13 -132 0 -187 65 -42 50 -57 55 -74 24
-17 -33 -4 -97 26 -129 45 -47 158 -93 242 -98 l73 -5 0 -31 c0 -83 34 -131
83 -118 17 4 19 11 13 59 -8 72 0 103 29 103 57 0 267 94 352 158 56 42 183
152 267 231 90 86 224 296 343 537 94 190 110 218 164 269 32 31 62 69 65 83
4 15 11 33 17 39 5 7 6 32 3 58 -12 79 -74 104 -173 69z m102 -30 c9 -4 21
-18 26 -32 15 -40 -8 -91 -75 -162 -53 -56 -77 -97 -168 -282 -96 -194 -208
-380 -286 -473 -36 -43 -231 -217 -307 -272 -72 -54 -195 -114 -293 -143 -53
-16 -77 -29 -92 -50 l-20 -28 -28 27 c-22 23 -39 29 -96 34 -101 9 -226 73
-226 114 0 9 14 2 39 -17 52 -42 99 -51 191 -39 113 16 121 23 151 130 72 264
150 465 250 645 78 140 91 178 67 202 -32 32 -57 18 -303 -168 -99 -75 -197
-144 -218 -154 -83 -39 -145 8 -134 101 7 61 46 136 123 234 37 46 82 109 102
139 65 102 112 140 175 140 20 0 41 -7 51 -19 30 -33 11 -67 -73 -133 -78 -61
-174 -177 -212 -256 -20 -40 -20 -44 -4 -68 15 -23 22 -25 53 -20 39 6 227
115 302 175 66 52 279 243 320 286 63 66 122 83 160 45 38 -38 27 -78 -39
-146 -33 -34 -88 -111 -126 -175 -37 -63 -101 -167 -142 -232 -41 -66 -93
-158 -115 -205 -22 -48 -71 -150 -109 -227 -38 -77 -69 -149 -69 -161 0 -35
31 -55 68 -45 84 25 273 161 364 263 251 282 361 465 495 823 28 75 44 101 75
119 50 30 94 41 123 30z"/>
</g>
</svg>
